<svg width="638.5099853515625px" height="138.0800018310547px" xmlns="http://www.w3.org/2000/svg" viewBox="-69.25499267578124 5.959999084472656 638.5099853515625 138.0800018310547" style="background: rgb(255, 255, 255);" preserveAspectRatio="xMidYMid"><defs><filter id="editing-extrude-glow"><feFlood flood-color="#5e6fa3" result="flood-1"></feFlood><feMorphology operator="erode" radius="1" in="SourceAlpha" result="erode"></feMorphology><feComposite operator="in" in="flood-1" in2="erode" result="comp1"></feComposite><feConvolveMatrix order="3,3" divisor="1" in="comp1" result="convolve" kernelMatrix="0 0 0 1 1 1 0 0 0"></feConvolveMatrix><feOffset dx="-3" dy="0" in="convolve" result="extrude"></feOffset><feComposite operator="in" in="flood-1" in2="extrude" result="comp-extrude"></feComposite><feFlood flood-color="#666d90" result="flood-2"></feFlood><feComposite operator="in" in="flood-2" in2="SourceAlpha" result="comp2"></feComposite><feMorphology operator="dilate" radius="1" in="comp2" result="dilate"></feMorphology><feOffset dx="-4.5" dy="0" in="dilate" result="offset"></feOffset><feGaussianBlur in="offset" stdDeviation="5.8" result="blur"></feGaussianBlur><feComponentTransfer in="blur" result="shadow"><feFuncA type="linear" slope="0.8" intercept="-0.2"></feFuncA></feComponentTransfer><feMerge><feMergeNode in="shadow"></feMergeNode><feMergeNode in="comp-extrude"></feMergeNode><feMergeNode in="SourceGraphic"></feMergeNode></feMerge></filter></defs><g filter="url(#editing-extrude-glow)"><g transform="translate(22.565019130706787, 112.18294906616211)"><path d="M1.56-3.94L1.56-3.94L1.56-3.94Q1.56-7.69 2.06-11.38L2.06-11.38L2.06-11.38Q2.56-15.06 2.94-18.75L2.94-18.75L2.94-18.75Q2.94-18.94 3-19.59L3-19.59L3-19.59Q3.06-20.25 3.16-21L3.16-21L3.16-21Q3.25-21.75 3.34-22.41L3.34-22.41L3.34-22.41Q3.44-23.06 3.44-23.25L3.44-23.25L3.44-23.50L6.06-43L6.06-43Q5.94-44.25 6.47-45.22L6.47-45.22L6.47-45.22Q7-46.19 8.44-46.19L8.44-46.19L8.44-46.19Q10-46.38 11.03-45.78L11.03-45.78L11.03-45.78Q12.06-45.19 12.75-44.25L12.75-44.25L12.75-44.25Q13.44-43.31 13.88-42.19L13.88-42.19L13.88-42.19Q14.31-41.06 14.81-40.13L14.81-40.13L14.81-40.13Q15.13-39.25 15.59-38.06L15.59-38.06L15.59-38.06Q16.06-36.88 16.72-35.06L16.72-35.06L16.72-35.06Q17.38-33.25 18.28-30.63L18.28-30.63L18.28-30.63Q19.19-28 20.38-24.25L20.38-24.25L20.63-24L20.63-24Q21.06-24.25 22.28-24.81L22.28-24.81L22.28-24.81Q23.50-25.38 24.84-26L24.84-26L24.84-26Q26.19-26.63 27.38-27.19L27.38-27.19L27.38-27.19Q28.56-27.75 29.06-27.94L29.06-27.94L29.06-27.94Q29.13-28.06 29.41-28.16L29.41-28.16L29.41-28.16Q29.69-28.25 29.81-28.31L29.81-28.31L29.94-28.31L29.94-28.31Q30.56-28.31 30.88-27.84L30.88-27.84L30.88-27.84Q31.19-27.38 31.19-26.94L31.19-26.94L31.19-26.94Q31.19-26.25 30.88-25.75L30.88-25.75L30.88-25.75Q30.56-25.25 30.16-24.84L30.16-24.84L30.16-24.84Q29.75-24.44 29.28-24.06L29.28-24.06L29.28-24.06Q28.81-23.69 28.56-23.25L28.56-23.25L22.38-20.13L22.38-20.13Q22.13-19.81 22.13-19.63L22.13-19.63L22.13-19.63Q22.13-19.13 22.66-18.06L22.66-18.06L22.66-18.06Q23.19-17 23.50-16.38L23.50-16.38L23.50-16.38Q23.69-16 24.13-15L24.13-15L24.13-15Q24.56-14 25.06-12.94L25.06-12.94L25.06-12.94Q25.56-11.88 26.03-10.91L26.03-10.91L26.03-10.91Q26.50-9.94 26.69-9.56L26.69-9.56L26.69-9.38L26.69-9.38Q26.69-7.13 24.44-7.13L24.44-7.13L24.44-7.13Q23.75-7.13 23-7.28L23-7.28L23-7.28Q22.25-7.44 21.88-8.19L21.88-8.19L17.69-17.13L17.13-17.13L17.13-17.13Q14.75-15.31 12.06-13.56L12.06-13.56L12.06-13.56Q9.38-11.81 6.56-10.56L6.56-10.56L6.56-10.56Q6.13-8.31 6.03-6L6.03-6L6.03-6Q5.94-3.69 6.06-1.38L6.06-1.38L6.06-1.38Q5.56-0.69 5.06-0.34L5.06-0.34L5.06-0.34Q4.56 0 3.69 0L3.69 0L3.69 0Q2.81 0 2.38-0.41L2.38-0.41L2.38-0.41Q1.94-0.81 1.75-1.41L1.75-1.41L1.75-1.41Q1.56-2 1.56-2.69L1.56-2.69L1.56-2.69Q1.56-3.38 1.56-3.94ZM7.13-17.69L7.13-16.06L7.13-16.06Q9-16.81 10.78-18.06L10.78-18.06L10.78-18.06Q12.56-19.31 14.19-20.38L14.19-20.38L14.19-20.38Q14.38-20.50 14.66-20.63L14.66-20.63L14.66-20.63Q14.94-20.75 15.19-20.94L15.19-20.94L15.19-20.94Q15.44-21.13 15.81-21.38L15.81-21.38L15.81-21.88L10.06-38.25L9.81-38.50L9.81-38.50Q9.63-38.13 9.34-36.38L9.34-36.38L9.34-36.38Q9.06-34.63 8.72-31.84L8.72-31.84L8.72-31.84Q8.38-29.06 7.97-25.44L7.97-25.44L7.97-25.44Q7.56-21.81 7.13-17.69L7.13-17.69ZM35.75-5.50L34.19-30.56L34.19-30.56Q34.31-34.31 33.88-38.06L33.88-38.06L33.88-38.06Q33.44-41.81 33.44-45.50L33.44-45.50L33.44-45.50Q33.44-46.69 34.13-46.97L34.13-46.97L34.13-46.97Q34.81-47.25 35.69-47.25L35.69-47.25L35.69-47.25Q36.94-47.25 37.75-46.56L37.75-46.56L37.75-46.56Q38.56-45.88 38.69-44.63L38.69-44.63L38.69-44.63Q39.25-37.81 39.34-31.16L39.34-31.16L39.34-31.16Q39.44-24.50 40.25-17.69L40.25-17.69L40.25-17.69Q42.13-21.25 44.13-23.56L44.13-23.56L44.13-23.56Q46.13-25.88 47.97-26.63L47.97-26.63L47.97-26.63Q49.81-27.38 51.34-26.34L51.34-26.34L51.34-26.34Q52.88-25.31 53.81-22.28L53.81-22.28L53.81-22.28Q54.75-19.25 54.94-14.03L54.94-14.03L54.94-14.03Q55.13-8.81 54.31-1.06L54.31-1.06L54.31-1.06Q53.88-1.06 53.25-1.03L53.25-1.03L53.25-1.03Q52.63-1 52.03-1.06L52.03-1.06L52.03-1.06Q51.44-1.13 51-1.31L51-1.31L51-1.31Q50.56-1.50 50.50-2L50.50-2L50.50-2Q51-6.69 51.06-9.88L51.06-9.88L51.06-9.88Q51.13-13.06 50.88-15.13L50.88-15.13L50.88-15.13Q50.63-17.19 50.19-18.28L50.19-18.28L50.19-18.28Q49.75-19.38 49.25-19.88L49.25-19.88L49.25-19.88Q48.75-20.38 48.28-20.41L48.28-20.41L48.28-20.41Q47.81-20.44 47.56-20.38L47.56-20.38L47.56-20.38Q46.19-19.88 44.97-17.94L44.97-17.94L44.97-17.94Q43.75-16 42.88-13.44L42.88-13.44L42.88-13.44Q42-10.88 41.59-8.03L41.59-8.03L41.59-8.03Q41.19-5.19 41.38-2.94L41.38-2.94L41.38-2.94Q41.31-2.44 41.25-1.94L41.25-1.94L41.25-1.94Q41.19-1.44 41.03-1L41.03-1L41.03-1Q40.88-0.56 40.53-0.28L40.53-0.28L40.53-0.28Q40.19 0 39.50 0L39.50 0L39.50 0Q38.19 0 37.41-0.47L37.41-0.47L37.41-0.47Q36.63-0.94 36.22-1.69L36.22-1.69L36.22-1.69Q35.81-2.44 35.72-3.44L35.72-3.44L35.72-3.44Q35.63-4.44 35.75-5.50L35.75-5.50ZM57.69-9.38L57.69-9.56L60-25.63L60-25.63Q60.13-26.44 60.72-26.81L60.72-26.81L60.72-26.81Q61.31-27.19 62.06-27.19L62.06-27.19L62.06-27.19Q63.44-27.19 64.25-26.41L64.25-26.41L64.25-26.41Q65.06-25.63 65.63-24.50L65.63-24.50L65.69-24.50L65.69-24.50Q66.44-24.50 67.03-24.78L67.03-24.78L67.03-24.78Q67.63-25.06 68.50-25.06L68.50-25.06L68.50-25.06Q70.50-25.06 71.91-23.81L71.91-23.81L71.91-23.81Q73.31-22.56 74.19-20.78L74.19-20.78L74.19-20.78Q75.06-19 75.47-16.94L75.47-16.94L75.47-16.94Q75.88-14.88 75.88-13.31L75.88-13.31L75.88-13.31Q75.88-11.44 74.91-9.13L74.91-9.13L74.91-9.13Q73.94-6.81 72.34-4.75L72.34-4.75L72.34-4.75Q70.75-2.69 68.75-1.31L68.75-1.31L68.75-1.31Q66.75 0.06 64.69 0.06L64.69 0.06L64.69 0.06Q62.81 0.06 61.47-0.81L61.47-0.81L61.47-0.81Q60.13-1.69 59.28-3.03L59.28-3.03L59.28-3.03Q58.44-4.38 58.06-6.06L58.06-6.06L58.06-6.06Q57.69-7.75 57.69-9.38L57.69-9.38ZM62.94-9.38L62.94-9.19L62.94-9.19Q63.06-8.56 63.19-7.75L63.19-7.75L63.19-7.75Q63.31-6.94 63.56-6.28L63.56-6.28L63.56-6.28Q63.81-5.63 64.28-5.28L64.28-5.28L64.28-5.28Q64.75-4.94 65.63-5.25L65.63-5.25L65.63-5.25Q66.44-6 67.38-6.94L67.38-6.94L67.38-6.94Q68.31-7.88 69.16-8.94L69.16-8.94L69.16-8.94Q70-10 70.56-11.19L70.56-11.19L70.56-11.19Q71.13-12.38 71.13-13.69L71.13-13.69L71.13-13.69Q71.38-15.81 70.81-17.59L70.81-17.59L70.81-17.59Q70.25-19.38 69.22-20.16L69.22-20.16L69.22-20.16Q68.19-20.94 66.88-20.34L66.88-20.34L66.88-20.34Q65.56-19.75 64.25-17.13L64.25-17.13L64.25-17.13Q63.50-15.50 63.22-13.34L63.22-13.34L63.22-13.34Q62.94-11.19 62.94-9.38L62.94-9.38ZM91.13 17.19L91.13 17.19L91.13 17.19Q91 15.88 90.97 14L90.97 14L90.97 14Q90.94 12.13 90.94 10.06L90.94 10.06L90.94 10.06Q90.94 8 90.97 5.88L90.97 5.88L90.97 5.88Q91 3.75 91.13 2L91.13 2L91.13-0.25L91.13-0.25Q90.81-0.69 90.38-1.16L90.38-1.16L90.38-1.16Q89.94-1.63 88.84-3.03L88.84-3.03L88.84-3.03Q87.75-4.44 85.75-7.22L85.75-7.22L85.75-7.22Q83.75-10 80.38-15L80.38-15L80.38-15Q79.06-16.38 78.69-17.28L78.69-17.28L78.69-17.28Q78.31-18.19 78.44-18.75L78.44-18.75L78.44-18.75Q78.56-19.31 79.09-19.56L79.09-19.56L79.09-19.56Q79.63-19.81 80.13-19.81L80.13-19.81L80.13-19.81Q81.38-19.81 82.38-19.25L82.38-19.25L82.38-19.25Q83.38-18.69 84.19-17.81L84.19-17.81L84.19-17.81Q85-16.94 85.66-15.91L85.66-15.91L85.66-15.91Q86.31-14.88 86.94-13.94L86.94-13.94L86.94-13.94Q87.31-13.38 87.88-12.50L87.88-12.50L87.88-12.50Q88.44-11.63 89-10.78L89-10.78L89-10.78Q89.56-9.94 89.97-9.31L89.97-9.31L89.97-9.31Q90.38-8.69 90.38-8.69L90.38-8.69L91.13-7.88L91.13-14.44L91.13-14.44Q91.13-17.56 91-20.53L91-20.53L91-20.53Q90.88-23.50 90.88-26.56L90.88-26.56L90.88-26.56Q90.88-27.44 91.50-28L91.50-28L91.50-28Q92.13-28.56 93-28.50L93-28.50L93-28.50Q94.06-28.38 94.59-28.13L94.59-28.13L94.59-28.13Q95.13-27.88 95.69-27.13L95.69-27.13L95.69-27.13Q96.19-26.44 96.16-25.50L96.16-25.50L96.16-25.50Q96.13-24.56 96.19-23.69L96.19-23.69L96.19-23.69Q96.44-17.75 96.59-11.84L96.59-11.84L96.59-11.84Q96.75-5.94 96.75 0L96.75 0L96.75 0Q96.69 0.56 96.69 2.28L96.69 2.28L96.69 2.28Q96.69 4 96.72 6.19L96.72 6.19L96.72 6.19Q96.75 8.38 96.78 10.75L96.78 10.75L96.78 10.75Q96.81 13.13 96.84 15.09L96.84 15.09L96.84 15.09Q96.88 17.06 96.91 18.34L96.91 18.34L96.91 18.34Q96.94 19.63 97 19.56L97 19.56L97 19.56Q97 20.50 96.34 20.94L96.34 20.94L96.34 20.94Q95.69 21.38 94.75 21.38L94.75 21.38L94.75 21.38Q93.50 21.38 92.91 21.03L92.91 21.03L92.91 21.03Q92.31 20.69 92 20.09L92 20.09L92 20.09Q91.69 19.50 91.56 18.75L91.56 18.75L91.56 18.75Q91.44 18 91.13 17.19ZM99.69-2.13L99.69-2.13L99.69-2.13Q99.69-2.75 100.16-3.31L100.16-3.31L100.16-3.31Q100.63-3.88 101.06-4.25L101.06-4.25L102.06-4.25L102.06-4.25Q103.13-4.25 103.84-3.78L103.84-3.78L103.84-3.78Q104.56-3.31 104.56-2.19L104.56-2.19L104.56-2.19Q104.56-1.81 104.31-1.41L104.31-1.41L104.31-1.41Q104.06-1 103.66-0.66L103.66-0.66L103.66-0.66Q103.25-0.31 102.75-0.13L102.75-0.13L102.75-0.13Q102.25 0.06 101.81 0L101.81 0L101.81 0Q101.19-0.13 100.44-0.75L100.44-0.75L100.44-0.75Q99.69-1.38 99.69-2.13ZM99.69-22.94L99.69-22.94L99.69-22.94Q99.69-23.63 99.72-24.16L99.72-24.16L99.72-24.16Q99.75-24.69 100-25.38L100-25.38L100-46.75L100-46.75Q100-46.94 100.28-47.16L100.28-47.16L100.28-47.16Q100.56-47.38 100.91-47.56L100.91-47.56L100.91-47.56Q101.25-47.75 101.59-47.88L101.59-47.88L101.59-47.88Q101.94-48 102.06-48L102.06-48L102.06-48Q103.13-48 103.66-47.25L103.66-47.25L103.66-47.25Q104.19-46.50 104.50-45.69L104.50-45.69L104.50-45.69Q104.50-45.19 104.47-44.03L104.47-44.03L104.47-44.03Q104.44-42.88 104.44-41.59L104.44-41.59L104.44-41.59Q104.44-40.31 104.47-39.13L104.47-39.13L104.47-39.13Q104.50-37.94 104.50-37.50L104.50-37.50L104.50-37.50Q104.50-37.19 104.53-36.16L104.53-36.16L104.53-36.16Q104.56-35.13 104.63-33.91L104.63-33.91L104.63-33.91Q104.69-32.69 104.72-31.63L104.72-31.63L104.72-31.63Q104.75-30.56 104.75-30.31L104.75-30.31L104.75-30.31Q104.75-30 104.72-29L104.72-29L104.72-29Q104.69-28 104.66-26.84L104.66-26.84L104.66-26.84Q104.63-25.69 104.56-24.56L104.56-24.56L104.56-24.56Q104.50-23.44 104.50-22.94L104.50-22.94L104.50-22.94Q104.38-21.81 103.88-20.94L103.88-20.94L103.88-20.94Q103.38-20.06 102.06-20.06L102.06-20.06L102.06-20.06Q100.69-20.06 100.19-20.81L100.19-20.81L100.19-20.81Q99.69-21.56 99.69-22.94ZM137.50-2.13L136.50-14.50L136.50-14.50Q136.13-15.31 135.91-15.81L135.91-15.81L135.91-15.81Q135.69-16.31 135.69-17L135.69-17L135.69-17Q135.69-17.56 135.84-18.03L135.84-18.03L135.84-18.03Q136-18.50 136-19.06L136-19.06L136-19.06Q136-20.44 135.91-21.63L135.91-21.63L135.91-21.63Q135.81-22.81 135.69-24.25L135.69-24.25L135.69-24.25Q135.63-24.44 135.25-24.56L135.25-24.56L135.25-24.56Q134.88-24.69 134.44-24.91L134.44-24.91L134.44-24.91Q134-25.13 133.66-25.56L133.66-25.56L133.66-25.56Q133.31-26 133.31-26.81L133.31-26.81L133.31-26.81Q133.31-27.56 133.66-28.09L133.66-28.09L133.66-28.09Q134-28.63 134.38-29.09L134.38-29.09L134.38-29.09Q134.75-29.56 135.09-30.09L135.09-30.09L135.09-30.09Q135.44-30.63 135.44-31.38L135.44-31.38L135.44-31.38Q135.44-31.69 135.38-32.53L135.38-32.53L135.38-32.53Q135.31-33.38 135.28-34.31L135.28-34.31L135.28-34.31Q135.25-35.25 135.22-36.09L135.22-36.09L135.22-36.09Q135.19-36.94 135.19-37.25L135.19-37.25L135.19-37.38L135.19-37.50L135.19-37.50Q135.44-38.06 135.59-38.44L135.59-38.44L135.59-38.44Q135.75-38.81 135.94-39L135.94-39L135.94-39Q136.13-39.19 136.44-39.28L136.44-39.28L136.44-39.28Q136.75-39.38 137.25-39.38L137.25-39.38L137.25-39.38Q138.56-39.38 139.19-38.88L139.19-38.88L139.19-38.88Q139.81-38.38 140.06-37.72L140.06-37.72L140.06-37.72Q140.31-37.06 140.38-36.50L140.38-36.50L140.38-36.50Q140.44-35.94 140.69-35.88L140.69-35.88L145.19-39.81L145.44-39.81L145.44-39.81Q147.63-41.25 150.06-42.03L150.06-42.03L150.06-42.03Q152.50-42.81 155.19-42.81L155.19-42.81L155.19-42.81Q156-42.81 157.16-42.63L157.16-42.63L157.16-42.63Q158.31-42.44 159.34-41.97L159.34-41.97L159.34-41.97Q160.38-41.50 161.09-40.75L161.09-40.75L161.09-40.75Q161.81-40 161.81-38.88L161.81-38.88L161.81-38.88Q161.81-37.63 161.50-36.31L161.50-36.31L161.50-36.31Q161.19-35 160.66-33.72L160.66-33.72L160.66-33.72Q160.13-32.44 159.41-31.28L159.41-31.28L159.41-31.28Q158.69-30.13 157.88-29.31L157.88-29.31L157.88-29.31Q157.56-28.63 153.88-25.81L153.88-25.81L153.88-25.81Q150.19-23 142.88-17.44L142.88-17.44L172.88-15.56L172.88-15.56Q173.50-15.50 174.59-15.47L174.59-15.47L174.59-15.47Q175.69-15.44 176.72-15.25L176.72-15.25L176.72-15.25Q177.75-15.06 178.50-14.53L178.50-14.53L178.50-14.53Q179.25-14 179.25-12.94L179.25-12.94L179.25-12.94Q179.25-12.38 179.09-12.03L179.09-12.03L179.09-12.03Q178.94-11.69 178.72-11.47L178.72-11.47L178.72-11.47Q178.50-11.25 178.22-11.06L178.22-11.06L178.22-11.06Q177.94-10.88 177.69-10.56L177.69-10.56L176.63-10.56L175.56-10.56L175.56-10.56Q174.31-10.69 172.97-10.88L172.97-10.88L172.97-10.88Q171.63-11.06 169.84-11.31L169.84-11.31L169.84-11.31Q168.06-11.56 165.69-11.81L165.69-11.81L165.69-11.81Q163.31-12.06 160-12.25L160-12.25L160-12.25Q156.69-12.44 152.28-12.56L152.28-12.56L152.28-12.56Q147.88-12.69 142.06-12.69L142.06-12.69L142.06-12.69Q142-12.69 141.91-12.50L141.91-12.50L141.91-12.50Q141.81-12.31 141.81-12.19L141.81-12.19L141.81-12.19Q141.81-9.81 142.22-7.53L142.22-7.53L142.22-7.53Q142.63-5.25 142.63-3L142.63-3L142.63-3Q142.63-2.56 142.53-2.03L142.53-2.03L142.53-2.03Q142.44-1.50 142.19-1.03L142.19-1.03L142.19-1.03Q141.94-0.56 141.56-0.25L141.56-0.25L141.56-0.25Q141.19 0.06 140.63 0.06L140.63 0.06L140.63 0.06Q140.25 0.06 139.75-0.09L139.75-0.09L139.75-0.09Q139.25-0.25 138.78-0.56L138.78-0.56L138.78-0.56Q138.31-0.88 137.94-1.25L137.94-1.25L137.94-1.25Q137.56-1.63 137.50-2.13L137.50-2.13ZM140.69-29.31L140.69-28.31L140.69-28.31Q140.69-26.75 140.75-25.38L140.75-25.38L140.75-25.38Q140.81-24 140.94-22.38L140.94-22.38L141.13-22.38L141.13-22.38Q141.19-22.38 141.44-22.50L141.44-22.50L141.44-22.50Q141.69-22.63 142.69-23.28L142.69-23.28L142.69-23.28Q143.69-23.94 145.75-25.34L145.75-25.34L145.75-25.34Q147.81-26.75 151.56-29.31L151.56-29.31L151.56-29.31Q152.31-29.75 153.19-30.81L153.19-30.81L153.19-30.81Q154.06-31.88 154.81-33.13L154.81-33.13L154.81-33.13Q155.56-34.38 156.06-35.59L156.06-35.59L156.06-35.59Q156.56-36.81 156.56-37.63L156.56-37.63L156.56-37.63Q156.56-38.25 155.97-38.25L155.97-38.25L155.97-38.25Q155.38-38.25 154.94-38.25L154.94-38.25L154.94-38.25Q154-38.25 152.81-37.94L152.81-37.94L152.81-37.94Q151.63-37.63 149.97-36.69L149.97-36.69L149.97-36.69Q148.31-35.75 146.03-34L146.03-34L146.03-34Q143.75-32.25 140.69-29.31L140.69-29.31ZM196-17.13L195.75-17.44L195.75-17.44Q195.19-16.44 194.47-15.03L194.47-15.03L194.47-15.03Q193.75-13.63 192.94-12.03L192.94-12.03L192.94-12.03Q192.13-10.44 191.16-8.84L191.16-8.84L191.16-8.84Q190.19-7.25 189.16-5.94L189.16-5.94L189.16-5.94Q188.13-4.63 187-3.72L187-3.72L187-3.72Q185.88-2.81 184.69-2.63L184.69-2.63L184.69-2.63Q184.19-2.63 183.56-2.72L183.56-2.72L183.56-2.72Q182.94-2.81 182.31-3.03L182.31-3.03L182.31-3.03Q181.69-3.25 181.28-3.66L181.28-3.66L181.28-3.66Q180.88-4.06 180.88-4.75L180.88-4.75L180.88-4.75Q180.94-11.13 181.81-16.34L181.81-16.34L181.81-16.34Q182.69-21.56 184.56-25.53L184.56-25.53L184.56-25.53Q186.44-29.50 189.38-32.13L189.38-32.13L189.38-32.13Q192.31-34.75 196.50-35.88L196.50-35.88L196.50-35.88Q196.63-35.88 196.97-35.91L196.97-35.91L196.97-35.91Q197.31-35.94 197.44-35.94L197.44-35.94L197.44-35.94Q199.31-36 200.16-34.22L200.16-34.22L200.16-34.22Q201-32.44 201.41-28.59L201.41-28.59L201.41-28.59Q201.81-24.75 201.97-18.72L201.97-18.72L201.97-18.72Q202.13-12.69 202.63-4.25L202.63-4.25L202.63-4.25Q202.81-3.56 202.84-3.06L202.84-3.06L202.84-3.06Q202.88-2.56 202.88-1.88L202.88-1.88L202.88-1.88Q202.88-0.94 202.31-0.47L202.31-0.47L202.31-0.47Q201.75 0 200.88 0L200.88 0L200.88 0Q199.06 0 198.31-1L198.31-1L198.31-1Q197.56-2 197.31-3.69L197.31-3.69L197.31-3.69Q197.31-3.75 197.22-4.69L197.22-4.69L197.22-4.69Q197.13-5.63 196.97-6.84L196.97-6.84L196.97-6.84Q196.81-8.06 196.69-9.31L196.69-9.31L196.69-9.31Q196.56-10.56 196.50-11.38L196.50-11.38L196.50-11.63L196.50-11.63Q196.38-12.25 196.34-13.19L196.34-13.19L196.34-13.19Q196.31-14.13 196.19-15L196.19-15L196.19-15Q196.06-16.06 196-17.13L196-17.13ZM194.38-29.81L194.38-29.81L194.38-29.81Q192.69-28.56 191.06-26.44L191.06-26.44L191.06-26.44Q189.44-24.31 188.75-22.31L188.75-22.31L188.75-22.31Q188.44-21.38 188.06-19.75L188.06-19.75L188.06-19.75Q187.69-18.13 187.41-16.53L187.41-16.53L187.41-16.53Q187.13-14.94 186.94-13.59L186.94-13.59L186.94-13.59Q186.75-12.25 186.75-11.88L186.75-11.88L186.75-11.88Q186.81-11.88 186.91-12L186.91-12L186.91-12Q187-12.13 187.06-12.19L187.06-12.19L187.06-12.19Q190.94-15.94 192.53-20.28L192.53-20.28L192.53-20.28Q194.13-24.63 194.38-29.81ZM209.19 21.81L209.19 21.81L209.19 21.81Q208.94 21.13 209.22 20.25L209.22 20.25L209.22 20.25Q209.50 19.38 210.38 19.13L210.38 19.13L210.38 19.13Q211.81 19.75 213.38 19.94L213.38 19.94L213.38 19.94Q214.94 20.13 216.53 20L216.53 20L216.53 20Q218.13 19.88 219.69 19.50L219.69 19.50L219.69 19.50Q221.25 19.13 222.69 18.63L222.69 18.63L222.69 18.63Q224.13 17.44 224.69 15.53L224.69 15.53L224.69 15.53Q225.25 13.63 225.13 10.34L225.13 10.34L225.13 10.34Q225 7.06 224.28 2.16L224.28 2.16L224.28 2.16Q223.56-2.75 222.44-9.88L222.44-9.88L222.44-9.88Q222.44-10.06 222.47-10.44L222.47-10.44L222.47-10.44Q222.50-10.81 222.44-11.16L222.44-11.16L222.44-11.16Q222.38-11.50 222.22-11.69L222.22-11.69L222.22-11.69Q222.06-11.88 221.81-11.69L221.81-11.69L221.81-11.69Q221-10.13 219.91-8.28L219.91-8.28L219.91-8.28Q218.81-6.44 217.41-4.84L217.41-4.84L217.41-4.84Q216-3.25 214.28-2.19L214.28-2.19L214.28-2.19Q212.56-1.13 210.44-1.13L210.44-1.13L210.44-1.13Q208.56-1.13 207.16-2.22L207.16-2.22L207.16-2.22Q205.75-3.31 205.75-5.38L205.75-5.38L205.75-5.38Q205.75-6.94 206.41-9.31L206.41-9.31L206.41-9.31Q207.06-11.69 208.19-14.34L208.19-14.34L208.19-14.34Q209.31-17 210.81-19.63L210.81-19.63L210.81-19.63Q212.31-22.25 213.94-24.38L213.94-24.38L213.94-24.38Q215.56-26.50 217.25-27.84L217.25-27.84L217.25-27.84Q218.94-29.19 220.50-29.19L220.50-29.19L220.50-29.19Q221.13-29.19 222.16-28.97L222.16-28.97L222.16-28.97Q223.19-28.75 224.16-28.31L224.16-28.31L224.16-28.31Q225.13-27.88 225.84-27.31L225.84-27.31L225.84-27.31Q226.56-26.75 226.56-26L226.56-26L226.56-20.94L230.63 8.56L230.63 8.56Q230.63 11.06 230.53 13.34L230.53 13.34L230.53 13.34Q230.44 15.63 229.72 17.56L229.72 17.56L229.72 17.56Q229 19.50 227.44 21L227.44 21L227.44 21Q225.88 22.50 222.94 23.44L222.94 23.44L222.94 23.44Q222.56 23.63 221.38 23.75L221.38 23.75L221.38 23.75Q220.19 23.88 218.66 23.94L218.66 23.94L218.66 23.94Q217.13 24 215.41 23.94L215.41 23.94L215.41 23.94Q213.69 23.88 212.28 23.66L212.28 23.66L212.28 23.66Q210.88 23.44 210 23L210 23L210 23Q209.13 22.56 209.19 21.81ZM218.94-23.63L218.94-23.63L218.94-23.63Q218.31-22.94 217.28-21.44L217.28-21.44L217.28-21.44Q216.25-19.94 215.19-18.13L215.19-18.13L215.19-18.13Q214.13-16.31 213.09-14.34L213.09-14.34L213.09-14.34Q212.06-12.38 211.44-10.69L211.44-10.69L211.44-10.69Q210.81-9 210.66-7.81L210.66-7.81L210.66-7.81Q210.50-6.63 211.19-6.38L211.19-6.38L211.19-6.38Q212.50-7.06 214-8.66L214-8.66L214-8.66Q215.50-10.25 216.84-12.22L216.84-12.22L216.84-12.22Q218.19-14.19 219.22-16.28L219.22-16.28L219.22-16.28Q220.25-18.38 220.66-20.06L220.66-20.06L220.66-20.06Q221.06-21.75 220.72-22.78L220.72-22.78L220.72-22.78Q220.38-23.81 218.94-23.63ZM234.63-5.50L233.06-30.56L233.06-30.56Q233.19-34.31 232.75-38.06L232.75-38.06L232.75-38.06Q232.31-41.81 232.31-45.50L232.31-45.50L232.31-45.50Q232.31-46.69 233-46.97L233-46.97L233-46.97Q233.69-47.25 234.56-47.25L234.56-47.25L234.56-47.25Q235.81-47.25 236.63-46.56L236.63-46.56L236.63-46.56Q237.44-45.88 237.56-44.63L237.56-44.63L237.56-44.63Q238.13-37.81 238.22-31.16L238.22-31.16L238.22-31.16Q238.31-24.50 239.13-17.69L239.13-17.69L239.13-17.69Q241-21.25 243-23.56L243-23.56L243-23.56Q245-25.88 246.84-26.63L246.84-26.63L246.84-26.63Q248.69-27.38 250.22-26.34L250.22-26.34L250.22-26.34Q251.75-25.31 252.69-22.28L252.69-22.28L252.69-22.28Q253.63-19.25 253.81-14.03L253.81-14.03L253.81-14.03Q254-8.81 253.19-1.06L253.19-1.06L253.19-1.06Q252.75-1.06 252.13-1.03L252.13-1.03L252.13-1.03Q251.50-1 250.91-1.06L250.91-1.06L250.91-1.06Q250.31-1.13 249.88-1.31L249.88-1.31L249.88-1.31Q249.44-1.50 249.38-2L249.38-2L249.38-2Q249.88-6.69 249.94-9.88L249.94-9.88L249.94-9.88Q250-13.06 249.75-15.13L249.75-15.13L249.75-15.13Q249.50-17.19 249.06-18.28L249.06-18.28L249.06-18.28Q248.63-19.38 248.13-19.88L248.13-19.88L248.13-19.88Q247.63-20.38 247.16-20.41L247.16-20.41L247.16-20.41Q246.69-20.44 246.44-20.38L246.44-20.38L246.44-20.38Q245.06-19.88 243.84-17.94L243.84-17.94L243.84-17.94Q242.63-16 241.75-13.44L241.75-13.44L241.75-13.44Q240.88-10.88 240.47-8.03L240.47-8.03L240.47-8.03Q240.06-5.19 240.25-2.94L240.25-2.94L240.25-2.94Q240.19-2.44 240.13-1.94L240.13-1.94L240.13-1.94Q240.06-1.44 239.91-1L239.91-1L239.91-1Q239.75-0.56 239.41-0.28L239.41-0.28L239.41-0.28Q239.06 0 238.38 0L238.38 0L238.38 0Q237.06 0 236.28-0.47L236.28-0.47L236.28-0.47Q235.50-0.94 235.09-1.69L235.09-1.69L235.09-1.69Q234.69-2.44 234.59-3.44L234.59-3.44L234.59-3.44Q234.50-4.44 234.63-5.50L234.63-5.50ZM271.19-17.13L270.94-17.44L270.94-17.44Q270.38-16.44 269.66-15.03L269.66-15.03L269.66-15.03Q268.94-13.63 268.13-12.03L268.13-12.03L268.13-12.03Q267.31-10.44 266.34-8.84L266.34-8.84L266.34-8.84Q265.38-7.25 264.34-5.94L264.34-5.94L264.34-5.94Q263.31-4.63 262.19-3.72L262.19-3.72L262.19-3.72Q261.06-2.81 259.88-2.63L259.88-2.63L259.88-2.63Q259.38-2.63 258.75-2.72L258.75-2.72L258.75-2.72Q258.13-2.81 257.50-3.03L257.50-3.03L257.50-3.03Q256.88-3.25 256.47-3.66L256.47-3.66L256.47-3.66Q256.06-4.06 256.06-4.75L256.06-4.75L256.06-4.75Q256.13-11.13 257-16.34L257-16.34L257-16.34Q257.88-21.56 259.75-25.53L259.75-25.53L259.75-25.53Q261.63-29.50 264.56-32.13L264.56-32.13L264.56-32.13Q267.50-34.75 271.69-35.88L271.69-35.88L271.69-35.88Q271.81-35.88 272.16-35.91L272.16-35.91L272.16-35.91Q272.50-35.94 272.63-35.94L272.63-35.94L272.63-35.94Q274.50-36 275.34-34.22L275.34-34.22L275.34-34.22Q276.19-32.44 276.59-28.59L276.59-28.59L276.59-28.59Q277-24.75 277.16-18.72L277.16-18.72L277.16-18.72Q277.31-12.69 277.81-4.25L277.81-4.25L277.81-4.25Q278-3.56 278.03-3.06L278.03-3.06L278.03-3.06Q278.06-2.56 278.06-1.88L278.06-1.88L278.06-1.88Q278.06-0.94 277.50-0.47L277.50-0.47L277.50-0.47Q276.94 0 276.06 0L276.06 0L276.06 0Q274.25 0 273.50-1L273.50-1L273.50-1Q272.75-2 272.50-3.69L272.50-3.69L272.50-3.69Q272.50-3.75 272.41-4.69L272.41-4.69L272.41-4.69Q272.31-5.63 272.16-6.84L272.16-6.84L272.16-6.84Q272-8.06 271.88-9.31L271.88-9.31L271.88-9.31Q271.75-10.56 271.69-11.38L271.69-11.38L271.69-11.63L271.69-11.63Q271.56-12.25 271.53-13.19L271.53-13.19L271.53-13.19Q271.50-14.13 271.38-15L271.38-15L271.38-15Q271.25-16.06 271.19-17.13L271.19-17.13ZM269.56-29.81L269.56-29.81L269.56-29.81Q267.88-28.56 266.25-26.44L266.25-26.44L266.25-26.44Q264.63-24.31 263.94-22.31L263.94-22.31L263.94-22.31Q263.63-21.38 263.25-19.75L263.25-19.75L263.25-19.75Q262.88-18.13 262.59-16.53L262.59-16.53L262.59-16.53Q262.31-14.94 262.13-13.59L262.13-13.59L262.13-13.59Q261.94-12.25 261.94-11.88L261.94-11.88L261.94-11.88Q262-11.88 262.09-12L262.09-12L262.09-12Q262.19-12.13 262.25-12.19L262.25-12.19L262.25-12.19Q266.13-15.94 267.72-20.28L267.72-20.28L267.72-20.28Q269.31-24.63 269.56-29.81ZM287.81-8.69L287.81-8.94L280.94-25.63L280.94-25.63Q280.88-25.69 280.88-25.75L280.88-25.75L280.88-26L280.88-26Q280.88-26.56 281.22-26.97L281.22-26.97L281.22-26.97Q281.56-27.38 282.06-27.69L282.06-27.69L282.06-27.69Q282.19-27.69 282.56-27.72L282.56-27.72L282.56-27.72Q282.94-27.75 283.06-27.75L283.06-27.75L283.06-27.75Q284.25-27.75 284.78-27.38L284.78-27.38L284.78-27.38Q285.31-27 286.19-26.38L286.19-26.38L286.19-26.38Q286.44-25.44 286.84-24.44L286.84-24.44L286.84-24.44Q287.25-23.44 287.84-21.91L287.84-21.91L287.84-21.91Q288.44-20.38 289.38-18.06L289.38-18.06L289.38-18.06Q290.31-15.75 291.75-12.19L291.75-12.19L292.06-11.88L292.06-11.88Q292.25-12.19 292.41-12.69L292.41-12.69L292.41-12.69Q292.56-13.19 292.97-14.44L292.97-14.44L292.97-14.44Q293.38-15.69 294.13-18.06L294.13-18.06L294.13-18.06Q294.88-20.44 296.25-24.50L296.25-24.50L296.25-24.50Q296.75-25.31 296.94-26.38L296.94-26.38L296.94-26.38Q297.13-27.44 297.38-28.38L297.38-28.38L297.38-28.38Q297.63-29.31 298.16-29.94L298.16-29.94L298.16-29.94Q298.69-30.56 299.81-30.56L299.81-30.56L299.81-30.56Q300.88-30.56 301.88-29.72L301.88-29.72L301.88-29.72Q302.88-28.88 302.88-27.69L302.88-27.69L302.88-27.69Q302.88-27.13 302.50-26.47L302.50-26.47L302.50-26.47Q302.13-25.81 301.75-25.38L301.75-25.38L294.13 0L293.75 0L293.75 0Q293.50 0 293.03-0.06L293.03-0.06L293.03-0.06Q292.56-0.13 292.06-0.28L292.06-0.28L292.06-0.28Q291.56-0.44 291.19-0.63L291.19-0.63L291.19-0.63Q290.81-0.81 290.75-1.06L290.75-1.06L287.81-8.69ZM345.06-17.63L337.94-16.06L337.75-16.06L337.75-16.06Q337.75-13.50 337.84-11.03L337.84-11.03L337.84-11.03Q337.94-8.56 337.94-5.94L337.94-5.94L337.94-5.94Q337.94-5.19 337.91-4.47L337.91-4.47L337.91-4.47Q337.88-3.75 337.69-3.16L337.69-3.16L337.69-3.16Q337.50-2.56 337.03-2.22L337.03-2.22L337.03-2.22Q336.56-1.88 335.63-1.88L335.63-1.88L335.63-1.88Q333.88-1.88 333.19-3.69L333.19-3.69L333.19-3.69Q332.88-6.63 332.81-9.47L332.81-9.47L332.81-9.47Q332.75-12.31 332.44-15.31L332.44-15.31L332.44-15.31Q332.31-16.19 331.72-17L331.72-17L331.72-17Q331.13-17.81 331.13-18.56L331.13-18.56L331.13-18.56Q331.13-19.13 331.53-19.50L331.53-19.50L331.53-19.50Q331.94-19.88 331.94-20.56L331.94-20.56L331.94-20.56Q331.94-25.44 331.66-30.22L331.66-30.22L331.66-30.22Q331.38-35 331.38-39.81L331.38-39.81L331.38-40.88L331.38-40.88Q331.81-41.50 332.25-41.63L332.25-41.63L332.25-41.63Q332.69-41.75 333.44-41.75L333.44-41.75L333.44-41.75Q335.25-41.75 335.75-40.66L335.75-40.66L335.75-40.66Q336.25-39.56 336.31-38L336.31-38L336.88-21.38L336.88-21.38Q336.94-21.19 337.09-20.78L337.09-20.78L337.09-20.78Q337.25-20.38 337.56-20.38L337.56-20.38L337.56-20.38Q338-20.38 339.19-20.59L339.19-20.59L339.19-20.59Q340.38-20.81 341.69-21.09L341.69-21.09L341.69-21.09Q343-21.38 344.06-21.72L344.06-21.72L344.06-21.72Q345.13-22.06 345.31-22.38L345.31-22.38L345.31-22.38Q345.31-22.81 345.34-23.94L345.34-23.94L345.34-23.94Q345.38-25.06 345.38-25.50L345.38-25.50L345.38-25.50Q345.38-28.13 345.31-30.69L345.31-30.69L345.31-30.69Q345.25-33.25 345.06-35.88L345.06-35.88L345.06-35.88Q345.06-36.31 344.88-37.97L344.88-37.97L344.88-37.97Q344.69-39.63 344.50-41.56L344.50-41.56L344.50-41.56Q344.31-43.50 344.16-45.16L344.16-45.16L344.16-45.16Q344-46.81 344-47.25L344-47.25L344-47.25Q343.94-47.31 343.94-47.66L343.94-47.66L343.94-47.66Q343.94-48 343.94-48.13L343.94-48.13L343.94-48.13Q343.94-48.94 344.53-49.31L344.53-49.31L344.53-49.31Q345.13-49.69 345.81-49.69L345.81-49.69L345.81-49.69Q347.31-49.69 348.03-48.75L348.03-48.75L348.03-48.75Q348.75-47.81 349.06-46.44L349.06-46.44L349.06-46.44Q349.13-45.75 349.25-44.13L349.25-44.13L349.25-44.13Q349.38-42.50 349.56-40.63L349.56-40.63L349.56-40.63Q349.75-38.75 349.91-37.09L349.91-37.09L349.91-37.09Q350.06-35.44 350.13-34.81L350.13-34.81L350.13-33.81L350.13-33.81Q350.13-33.50 350.22-32.59L350.22-32.59L350.22-32.59Q350.31-31.69 350.38-31.38L350.38-31.38L350.38-5.75L350.38-5.75Q350.69-4.69 350.78-4L350.78-4L350.78-4Q350.88-3.31 350.88-2.38L350.88-2.38L350.88-2.38Q350.88-1.63 350.47-0.78L350.47-0.78L350.47-0.78Q350.06 0.06 349.06 0.06L349.06 0.06L349.06 0.06Q348.19 0.06 347.47-0.38L347.47-0.38L347.47-0.38Q346.75-0.81 346.22-1.50L346.22-1.50L346.22-1.50Q345.69-2.19 345.38-3.03L345.38-3.03L345.38-3.03Q345.06-3.88 345.06-4.75L345.06-4.75L345.06-17.63ZM380.25-17.75L380.25-17.75L380.25-17.75Q380.13-16.63 379.97-16L379.97-16L379.97-16Q379.81-15.38 379.44-14.88L379.44-14.88L379.44-14.88Q379.06-14.38 378.38-13.84L378.38-13.84L378.38-13.84Q377.69-13.31 376.50-12.34L376.50-12.34L376.50-12.34Q375.31-11.38 373.56-9.81L373.56-9.81L373.56-9.81Q371.81-8.25 369.31-5.75L369.31-5.75L369.31-5.75Q368.31-4.81 367.25-3.81L367.25-3.81L367.25-3.81Q366.19-2.81 365.03-2.03L365.03-2.03L365.03-2.03Q363.88-1.25 362.63-0.75L362.63-0.75L362.63-0.75Q361.38-0.25 360-0.25L360-0.25L360-0.25Q357.31-0.25 356.06-2.06L356.06-2.06L356.06-2.06Q354.81-3.88 354.81-6.25L354.81-6.25L354.81-6.25Q354.81-7.81 354.91-8.88L354.91-8.88L354.91-8.88Q355-9.94 355.38-11.63L355.38-11.63L355.38-11.63Q354.69-12.25 354.19-12.72L354.19-12.72L354.19-12.72Q353.69-13.19 353.69-14L353.69-14L353.69-14Q353.69-14.75 354.03-15L354.03-15L354.03-15Q354.38-15.25 354.84-15.34L354.84-15.34L354.84-15.34Q355.31-15.44 355.75-15.56L355.75-15.56L355.75-15.56Q356.19-15.69 356.38-16.06L356.38-16.06L356.38-16.06Q356.50-16.44 356.84-17.44L356.84-17.44L356.84-17.44Q357.19-18.44 357.56-19.53L357.56-19.53L357.56-19.53Q357.94-20.63 358.28-21.59L358.28-21.59L358.28-21.59Q358.63-22.56 358.75-22.94L358.75-22.94L358.75-22.94Q359.19-24 359.72-25.09L359.72-25.09L359.72-25.09Q360.25-26.19 360.97-27.06L360.97-27.06L360.97-27.06Q361.69-27.94 362.66-28.50L362.66-28.50L362.66-28.50Q363.63-29.06 364.94-29.06L364.94-29.06L364.94-29.06Q365.69-29.06 366.78-28.38L366.78-28.38L366.78-28.38Q367.88-27.69 368.88-26.72L368.88-26.72L368.88-26.72Q369.88-25.75 370.56-24.69L370.56-24.69L370.56-24.69Q371.25-23.63 371.25-22.88L371.25-22.88L371.25-22.88Q371.25-21.94 370.81-21.16L370.81-21.16L370.81-21.16Q370.38-20.38 369.72-19.72L369.72-19.72L369.72-19.72Q369.06-19.06 368.31-18.50L368.31-18.50L368.31-18.50Q367.56-17.94 366.94-17.44L366.94-17.44L366.94-17.44Q366.88-17.44 366.69-17.31L366.69-17.31L366.69-17.31Q366.50-17.19 366.38-17.13L366.38-17.13L366.38-17.13Q366.31-17.06 366.09-16.84L366.09-16.84L366.09-16.84Q365.88-16.63 365.63-16.38L365.63-16.38L365.63-16.38Q365.38-16.13 365.16-15.88L365.16-15.88L365.16-15.88Q364.94-15.63 364.88-15.56L364.88-15.56L364.88-15.56Q364.69-15.38 364.16-14.97L364.16-14.97L364.16-14.97Q363.63-14.56 363-14.09L363-14.09L363-14.09Q362.38-13.63 361.84-13.22L361.84-13.22L361.84-13.22Q361.31-12.81 361.13-12.69L361.13-12.69L360.88-12.19L360.88-12.19Q360.75-11.94 360.66-11.09L360.66-11.09L360.66-11.09Q360.56-10.25 360.44-9.19L360.44-9.19L360.44-9.19Q360.31-8.13 360.22-7.03L360.22-7.03L360.22-7.03Q360.13-5.94 360.13-5.25L360.13-5.25L360.13-5.25Q360.13-5.19 360.19-5.13L360.19-5.13L360.19-5.13Q360.31-5 360.38-5L360.38-5L360.38-5Q360.88-5 361.31-5.44L361.31-5.44L361.31-5.44Q361.75-5.88 362.25-6.06L362.25-6.06L372.25-15.31L374.81-19.25L374.81-19.25Q375.13-19.69 376.03-20.22L376.03-20.22L376.03-20.22Q376.94-20.75 377.88-20.78L377.88-20.78L377.88-20.78Q378.81-20.81 379.53-20.19L379.53-20.19L379.53-20.19Q380.25-19.56 380.25-17.75ZM362.38-19.94L366.50-22.63L366.50-22.63Q366.81-22.88 366.75-23.38L366.75-23.38L366.75-23.38Q366.69-23.88 366.41-24.25L366.41-24.25L366.41-24.25Q366.13-24.63 365.69-24.72L365.69-24.72L365.69-24.72Q365.25-24.81 364.88-24.25L364.88-24.25L364.88-24.25Q364.69-24 364.22-23.25L364.22-23.25L364.22-23.25Q363.75-22.50 363.28-21.72L363.28-21.72L363.28-21.72Q362.81-20.94 362.50-20.38L362.50-20.38L362.50-20.38Q362.19-19.81 362.38-19.94L362.38-19.94ZM384.75-2.69L384.75-2.69L384.75-2.69Q384.63-4.94 384.34-8.72L384.34-8.72L384.34-8.72Q384.06-12.50 383.72-16.56L383.72-16.56L383.72-16.56Q383.38-20.63 383-24.25L383-24.25L383-24.25Q382.63-27.88 382.38-29.88L382.38-29.88L382.38-29.88Q382.38-30.69 383.13-30.94L383.13-30.94L383.13-30.94Q383.88-31.19 384.56-31.19L384.56-31.19L384.56-31.19Q385.44-31.19 386.41-30.69L386.41-30.69L386.41-30.69Q387.38-30.19 387.63-29.31L387.63-29.31L387.63-29.31Q387.63-29.06 387.69-28.41L387.69-28.41L387.69-28.41Q387.75-27.75 387.78-27.06L387.78-27.06L387.78-27.06Q387.81-26.38 387.88-25.72L387.88-25.72L387.88-25.72Q387.94-25.06 387.94-24.81L387.94-24.81L387.94-24.81Q387.94-24.44 387.94-24.25L387.94-24.25L387.94-24.25Q387.94-24.06 387.94-23.91L387.94-23.91L387.94-23.91Q387.94-23.75 388-23.56L388-23.56L388-23.56Q388.06-23.38 388.19-22.94L388.19-22.94L388.19-22.94Q388.31-23.06 388.47-23.25L388.47-23.25L388.47-23.25Q388.63-23.44 388.69-23.50L388.69-23.50L388.69-23.50Q389.69-24.94 390.63-26.03L390.63-26.03L390.63-26.03Q391.56-27.13 392.56-28.09L392.56-28.09L392.56-28.09Q393.56-29.06 394.78-30.16L394.78-30.16L394.78-30.16Q396-31.25 397.63-32.69L397.63-32.69L397.63-32.69Q398-33 398.19-33.16L398.19-33.16L398.19-33.16Q398.38-33.31 398.53-33.41L398.53-33.41L398.53-33.41Q398.69-33.50 398.88-33.53L398.88-33.53L398.88-33.53Q399.06-33.56 399.38-33.56L399.38-33.56L399.38-33.56Q400.44-33.56 401.53-32.84L401.53-32.84L401.53-32.84Q402.63-32.13 402.63-30.88L402.63-30.88L402.63-30.88Q402.63-30.44 402.31-29.97L402.31-29.97L402.31-29.97Q402-29.50 401.56-29.09L401.56-29.09L401.56-29.09Q401.13-28.69 400.66-28.38L400.66-28.38L400.66-28.38Q400.19-28.06 399.81-27.94L399.81-27.94L399.81-27.94Q398.19-26.50 396.38-24.66L396.38-24.66L396.38-24.66Q394.56-22.81 393-20.69L393-20.69L393-20.69Q391.44-18.56 390.44-16.25L390.44-16.25L390.44-16.25Q389.44-13.94 389.44-11.63L389.44-11.63L389.44-11.63Q389.44-9.50 389.75-7.44L389.75-7.44L389.75-7.44Q390.06-5.38 390.06-3.25L390.06-3.25L390.06-1.06L390.06-1.06Q389.56-0.56 389.19-0.25L389.19-0.25L389.19-0.25Q388.81 0.06 388.13 0.06L388.13 0.06L388.13 0.06Q387.06 0.06 386.06-0.84L386.06-0.84L386.06-0.84Q385.06-1.75 384.75-2.69ZM430.38-17.75L430.38-17.75L430.38-17.75Q430.25-16.63 430.09-16L430.09-16L430.09-16Q429.94-15.38 429.56-14.88L429.56-14.88L429.56-14.88Q429.19-14.38 428.50-13.84L428.50-13.84L428.50-13.84Q427.81-13.31 426.63-12.34L426.63-12.34L426.63-12.34Q425.44-11.38 423.69-9.81L423.69-9.81L423.69-9.81Q421.94-8.25 419.44-5.75L419.44-5.75L419.44-5.75Q418.44-4.81 417.38-3.81L417.38-3.81L417.38-3.81Q416.31-2.81 415.16-2.03L415.16-2.03L415.16-2.03Q414-1.25 412.75-0.75L412.75-0.75L412.75-0.75Q411.50-0.25 410.13-0.25L410.13-0.25L410.13-0.25Q407.44-0.25 406.19-2.06L406.19-2.06L406.19-2.06Q404.94-3.88 404.94-6.25L404.94-6.25L404.94-6.25Q404.94-7.81 405.03-8.88L405.03-8.88L405.03-8.88Q405.13-9.94 405.50-11.63L405.50-11.63L405.50-11.63Q404.81-12.25 404.31-12.72L404.31-12.72L404.31-12.72Q403.81-13.19 403.81-14L403.81-14L403.81-14Q403.81-14.75 404.16-15L404.16-15L404.16-15Q404.50-15.25 404.97-15.34L404.97-15.34L404.97-15.34Q405.44-15.44 405.88-15.56L405.88-15.56L405.88-15.56Q406.31-15.69 406.50-16.06L406.50-16.06L406.50-16.06Q406.63-16.44 406.97-17.44L406.97-17.44L406.97-17.44Q407.31-18.44 407.69-19.53L407.69-19.53L407.69-19.53Q408.06-20.63 408.41-21.59L408.41-21.59L408.41-21.59Q408.75-22.56 408.88-22.94L408.88-22.94L408.88-22.94Q409.31-24 409.84-25.09L409.84-25.09L409.84-25.09Q410.38-26.19 411.09-27.06L411.09-27.06L411.09-27.06Q411.81-27.94 412.78-28.50L412.78-28.50L412.78-28.50Q413.75-29.06 415.06-29.06L415.06-29.06L415.06-29.06Q415.81-29.06 416.91-28.38L416.91-28.38L416.91-28.38Q418-27.69 419-26.72L419-26.72L419-26.72Q420-25.75 420.69-24.69L420.69-24.69L420.69-24.69Q421.38-23.63 421.38-22.88L421.38-22.88L421.38-22.88Q421.38-21.94 420.94-21.16L420.94-21.16L420.94-21.16Q420.50-20.38 419.84-19.72L419.84-19.72L419.84-19.72Q419.19-19.06 418.44-18.50L418.44-18.50L418.44-18.50Q417.69-17.94 417.06-17.44L417.06-17.44L417.06-17.44Q417-17.44 416.81-17.31L416.81-17.31L416.81-17.31Q416.63-17.19 416.50-17.13L416.50-17.13L416.50-17.13Q416.44-17.06 416.22-16.84L416.22-16.84L416.22-16.84Q416-16.63 415.75-16.38L415.75-16.38L415.75-16.38Q415.50-16.13 415.28-15.88L415.28-15.88L415.28-15.88Q415.06-15.63 415-15.56L415-15.56L415-15.56Q414.81-15.38 414.28-14.97L414.28-14.97L414.28-14.97Q413.75-14.56 413.13-14.09L413.13-14.09L413.13-14.09Q412.50-13.63 411.97-13.22L411.97-13.22L411.97-13.22Q411.44-12.81 411.25-12.69L411.25-12.69L411-12.19L411-12.19Q410.88-11.94 410.78-11.09L410.78-11.09L410.78-11.09Q410.69-10.25 410.56-9.19L410.56-9.19L410.56-9.19Q410.44-8.13 410.34-7.03L410.34-7.03L410.34-7.03Q410.25-5.94 410.25-5.25L410.25-5.25L410.25-5.25Q410.25-5.19 410.31-5.13L410.31-5.13L410.31-5.13Q410.44-5 410.50-5L410.50-5L410.50-5Q411-5 411.44-5.44L411.44-5.44L411.44-5.44Q411.88-5.88 412.38-6.06L412.38-6.06L422.38-15.31L424.94-19.25L424.94-19.25Q425.25-19.69 426.16-20.22L426.16-20.22L426.16-20.22Q427.06-20.75 428-20.78L428-20.78L428-20.78Q428.94-20.81 429.66-20.19L429.66-20.19L429.66-20.19Q430.38-19.56 430.38-17.75ZM412.50-19.94L416.63-22.63L416.63-22.63Q416.94-22.88 416.88-23.38L416.88-23.38L416.88-23.38Q416.81-23.88 416.53-24.25L416.53-24.25L416.53-24.25Q416.25-24.63 415.81-24.72L415.81-24.72L415.81-24.72Q415.38-24.81 415-24.25L415-24.25L415-24.25Q414.81-24 414.34-23.25L414.34-23.25L414.34-23.25Q413.88-22.50 413.41-21.72L413.41-21.72L413.41-21.72Q412.94-20.94 412.63-20.38L412.63-20.38L412.63-20.38Q412.31-19.81 412.50-19.94L412.50-19.94ZM432-2.38L432-2.38L432-2.38Q432-3.25 432.66-4L432.66-4L432.66-4Q433.31-4.75 434.19-4.75L434.19-4.75L434.19-4.75Q435.25-4.75 435.91-4.19L435.91-4.19L435.91-4.19Q436.56-3.63 437.19-2.94L437.19-2.94L437.19-2.75L437.19-2.75Q437.19-1.69 436.47-0.84L436.47-0.84L436.47-0.84Q435.75 0 434.56 0L434.56 0L434.56 0Q433.75 0 432.88-0.75L432.88-0.75L432.88-0.75Q432-1.50 432-2.38ZM440.06-2.38L440.06-2.38L440.06-2.38Q440.06-3.25 440.72-4L440.72-4L440.72-4Q441.38-4.75 442.25-4.75L442.25-4.75L442.25-4.75Q443.31-4.75 443.97-4.19L443.97-4.19L443.97-4.19Q444.63-3.63 445.25-2.94L445.25-2.94L445.25-2.75L445.25-2.75Q445.25-1.69 444.53-0.84L444.53-0.84L444.53-0.84Q443.81 0 442.63 0L442.63 0L442.63 0Q441.81 0 440.94-0.75L440.94-0.75L440.94-0.75Q440.06-1.50 440.06-2.38ZM448.13-2.38L448.13-2.38L448.13-2.38Q448.13-3.25 448.78-4L448.78-4L448.78-4Q449.44-4.75 450.31-4.75L450.31-4.75L450.31-4.75Q451.38-4.75 452.03-4.19L452.03-4.19L452.03-4.19Q452.69-3.63 453.31-2.94L453.31-2.94L453.31-2.75L453.31-2.75Q453.31-1.69 452.59-0.84L452.59-0.84L452.59-0.84Q451.88 0 450.69 0L450.69 0L450.69 0Q449.88 0 449-0.75L449-0.75L449-0.75Q448.13-1.50 448.13-2.38Z" fill="#a4d7ff"></path></g></g><style>text {
  font-size: 64px;
  font-family: Arial Black;
  dominant-baseline: central;
  text-anchor: middle;
}</style></svg>